<svg width="66" height="67" viewBox="0 0 66 67" fill="none" xmlns="http://www.w3.org/2000/svg">
<g style="mix-blend-mode:darken">
<path d="M33.0405 66.637C27.0345 66.637 21.5139 65.2417 16.4785 62.451C11.4432 59.5997 7.43919 55.6867 4.46652 50.712C1.55452 45.6767 0.0985236 40.0043 0.0985236 33.695C0.0985236 27.3857 1.55452 21.7437 4.46652 16.769C7.43919 11.7337 11.4432 7.82067 16.4785 5.03C21.5139 2.23933 27.0345 0.843998 33.0405 0.843998C39.1072 0.843998 44.6279 2.23933 49.6025 5.03C54.6379 7.82067 58.6115 11.7337 61.5235 16.769C64.4355 21.7437 65.8915 27.3857 65.8915 33.695C65.8915 40.0043 64.4355 45.6767 61.5235 50.712C58.6115 55.6867 54.6379 59.5997 49.6025 62.451C44.5672 65.2417 39.0465 66.637 33.0405 66.637ZM33.0405 50.075C37.5905 50.075 41.1699 48.5887 43.7785 45.616C46.4479 42.6433 47.7825 38.6697 47.7825 33.695C47.7825 28.599 46.4479 24.595 43.7785 21.683C41.1699 18.7103 37.5905 17.224 33.0405 17.224C28.4299 17.224 24.8202 18.7103 22.2115 21.683C19.6029 24.595 18.2985 28.599 18.2985 33.695C18.2985 38.7303 19.6029 42.7343 22.2115 45.707C24.8202 48.619 28.4299 50.075 33.0405 50.075Z" fill="#4441DE"/>
</g>
</svg>
