<svg width="342" height="67" viewBox="0 0 342 67" fill="none" xmlns="http://www.w3.org/2000/svg">
<g style="mix-blend-mode:darken">
<path d="M18.2043 16.132V26.597H38.6793V40.156H18.2043V51.713H41.4093V66H0.368324V1.845H41.4093V16.132H18.2043ZM98.9988 1.845L76.8858 66H54.0448L31.8408 1.845H50.9508L65.5108 48.164L79.9798 1.845H98.9988ZM108.742 16.132V26.597H129.217V40.156H108.742V51.713H131.947V66H90.9062V1.845H131.947V16.132H108.742ZM192.904 66H175.068L151.317 30.146V66H133.481V1.845H151.317L175.068 38.154V1.845H192.904V66ZM237.735 1.845V16.041H220.627V66H202.791V16.041H185.865V1.845H237.735ZM321.148 66L308.408 42.34H306.497V66H288.661V1.845H316.78C321.936 1.845 326.304 2.755 329.884 4.575C333.463 6.33433 336.163 8.79133 337.983 11.946C339.803 15.04 340.713 18.5283 340.713 22.411C340.713 26.779 339.499 30.6313 337.073 33.968C334.707 37.244 331.218 39.5797 326.608 40.975L341.077 66H321.148ZM306.497 30.146H315.324C317.75 30.146 319.57 29.5697 320.784 28.417C321.997 27.2643 322.604 25.596 322.604 23.412C322.604 21.3493 321.967 19.7417 320.693 18.589C319.479 17.3757 317.69 16.769 315.324 16.769H306.497V30.146Z" fill="#14143A"/>
<path d="M261.442 66.637C255.436 66.637 249.915 65.2417 244.88 62.451C239.844 59.5997 235.84 55.6867 232.868 50.712C229.956 45.6767 228.5 40.0043 228.5 33.695C228.5 27.3857 229.956 21.7437 232.868 16.769C235.84 11.7337 239.844 7.82067 244.88 5.03C249.915 2.23933 255.436 0.843998 261.442 0.843998C267.508 0.843998 273.029 2.23933 278.004 5.03C283.039 7.82067 287.013 11.7337 289.925 16.769C292.837 21.7437 294.293 27.3857 294.293 33.695C294.293 40.0043 292.837 45.6767 289.925 50.712C287.013 55.6867 283.039 59.5997 278.004 62.451C272.968 65.2417 267.448 66.637 261.442 66.637ZM261.442 50.075C265.992 50.075 269.571 48.5887 272.18 45.616C274.849 42.6433 276.184 38.6697 276.184 33.695C276.184 28.599 274.849 24.595 272.18 21.683C269.571 18.7103 265.992 17.224 261.442 17.224C256.831 17.224 253.221 18.7103 250.613 21.683C248.004 24.595 246.7 28.599 246.7 33.695C246.7 38.7303 248.004 42.7343 250.613 45.707C253.221 48.619 256.831 50.075 261.442 50.075Z" fill="#4441DE"/>
<path d="M18.2043 16.132V15.132H17.2043V16.132H18.2043ZM18.2043 26.597H17.2043V27.597H18.2043V26.597ZM38.6793 26.597H39.6793V25.597H38.6793V26.597ZM38.6793 40.156V41.156H39.6793V40.156H38.6793ZM18.2043 40.156V39.156H17.2043V40.156H18.2043ZM18.2043 51.713H17.2043V52.713H18.2043V51.713ZM41.4093 51.713H42.4093V50.713H41.4093V51.713ZM41.4093 66V67H42.4093V66H41.4093ZM0.368324 66H-0.631676V67H0.368324V66ZM0.368324 1.845V0.844996H-0.631676V1.845H0.368324ZM41.4093 1.845H42.4093V0.844996H41.4093V1.845ZM41.4093 16.132V17.132H42.4093V16.132H41.4093ZM17.2043 16.132V26.597H19.2043V16.132H17.2043ZM18.2043 27.597H38.6793V25.597H18.2043V27.597ZM37.6793 26.597V40.156H39.6793V26.597H37.6793ZM38.6793 39.156H18.2043V41.156H38.6793V39.156ZM17.2043 40.156V51.713H19.2043V40.156H17.2043ZM18.2043 52.713H41.4093V50.713H18.2043V52.713ZM40.4093 51.713V66H42.4093V51.713H40.4093ZM41.4093 65H0.368324V67H41.4093V65ZM1.36832 66V1.845H-0.631676V66H1.36832ZM0.368324 2.845H41.4093V0.844996H0.368324V2.845ZM40.4093 1.845V16.132H42.4093V1.845H40.4093ZM41.4093 15.132H18.2043V17.132H41.4093V15.132ZM98.9988 1.845L99.9442 2.17086L100.401 0.844996H98.9988V1.845ZM76.8858 66V67H77.5989L77.8312 66.3259L76.8858 66ZM54.0448 66L53.0998 66.3271L53.3327 67H54.0448V66ZM31.8408 1.845V0.844996H30.4365L30.8958 2.17206L31.8408 1.845ZM50.9508 1.845L51.9048 1.54512L51.6847 0.844996H50.9508V1.845ZM65.5108 48.164L64.5568 48.4639L65.5138 51.5082L66.4653 48.4622L65.5108 48.164ZM79.9798 1.845V0.844996H79.2445L79.0253 1.54683L79.9798 1.845ZM98.0534 1.51913L75.9404 65.6741L77.8312 66.3259L99.9442 2.17086L98.0534 1.51913ZM76.8858 65H54.0448V67H76.8858V65ZM54.9898 65.6729L32.7858 1.51793L30.8958 2.17206L53.0998 66.3271L54.9898 65.6729ZM31.8408 2.845H50.9508V0.844996H31.8408V2.845ZM49.9968 2.14487L64.5568 48.4639L66.4648 47.8641L51.9048 1.54512L49.9968 2.14487ZM66.4653 48.4622L80.9343 2.14316L79.0253 1.54683L64.5563 47.8658L66.4653 48.4622ZM79.9798 2.845H98.9988V0.844996H79.9798V2.845ZM108.742 16.132V15.132H107.742V16.132H108.742ZM108.742 26.597H107.742V27.597H108.742V26.597ZM129.217 26.597H130.217V25.597H129.217V26.597ZM129.217 40.156V41.156H130.217V40.156H129.217ZM108.742 40.156V39.156H107.742V40.156H108.742ZM108.742 51.713H107.742V52.713H108.742V51.713ZM131.947 51.713H132.947V50.713H131.947V51.713ZM131.947 66V67H132.947V66H131.947ZM90.9062 66H89.9062V67H90.9062V66ZM90.9062 1.845V0.844996H89.9062V1.845H90.9062ZM131.947 1.845H132.947V0.844996H131.947V1.845ZM131.947 16.132V17.132H132.947V16.132H131.947ZM107.742 16.132V26.597H109.742V16.132H107.742ZM108.742 27.597H129.217V25.597H108.742V27.597ZM128.217 26.597V40.156H130.217V26.597H128.217ZM129.217 39.156H108.742V41.156H129.217V39.156ZM107.742 40.156V51.713H109.742V40.156H107.742ZM108.742 52.713H131.947V50.713H108.742V52.713ZM130.947 51.713V66H132.947V51.713H130.947ZM131.947 65H90.9062V67H131.947V65ZM91.9062 66V1.845H89.9062V66H91.9062ZM90.9062 2.845H131.947V0.844996H90.9062V2.845ZM130.947 1.845V16.132H132.947V1.845H130.947ZM131.947 15.132H108.742V17.132H131.947V15.132ZM192.904 66V67H193.904V66H192.904ZM175.068 66L174.234 66.5523L174.531 67H175.068V66ZM151.317 30.146L152.15 29.5937L150.317 26.8257V30.146H151.317ZM151.317 66V67H152.317V66H151.317ZM133.481 66H132.481V67H133.481V66ZM133.481 1.845V0.844996H132.481V1.845H133.481ZM151.317 1.845L152.154 1.29758L151.858 0.844996H151.317V1.845ZM175.068 38.154L174.231 38.7014L176.068 41.5095V38.154H175.068ZM175.068 1.845V0.844996H174.068V1.845H175.068ZM192.904 1.845H193.904V0.844996H192.904V1.845ZM192.904 65H175.068V67H192.904V65ZM175.901 65.4477L152.15 29.5937L150.483 30.6983L174.234 66.5523L175.901 65.4477ZM150.317 30.146V66H152.317V30.146H150.317ZM151.317 65H133.481V67H151.317V65ZM134.481 66V1.845H132.481V66H134.481ZM133.481 2.845H151.317V0.844996H133.481V2.845ZM150.48 2.39241L174.231 38.7014L175.905 37.6066L152.154 1.29758L150.48 2.39241ZM176.068 38.154V1.845H174.068V38.154H176.068ZM175.068 2.845H192.904V0.844996H175.068V2.845ZM191.904 1.845V66H193.904V1.845H191.904ZM237.735 1.845H238.735V0.844996H237.735V1.845ZM237.735 16.041V17.041H238.735V16.041H237.735ZM220.627 16.041V15.041H219.627V16.041H220.627ZM220.627 66V67H221.627V66H220.627ZM202.791 66H201.791V67H202.791V66ZM202.791 16.041H203.791V15.041H202.791V16.041ZM185.865 16.041H184.865V17.041H185.865V16.041ZM185.865 1.845V0.844996H184.865V1.845H185.865ZM236.735 1.845V16.041H238.735V1.845H236.735ZM237.735 15.041H220.627V17.041H237.735V15.041ZM219.627 16.041V66H221.627V16.041H219.627ZM220.627 65H202.791V67H220.627V65ZM203.791 66V16.041H201.791V66H203.791ZM202.791 15.041H185.865V17.041H202.791V15.041ZM186.865 16.041V1.845H184.865V16.041H186.865ZM185.865 2.845H237.735V0.844996H185.865V2.845ZM244.88 62.451L244.387 63.3212L244.395 63.3257L244.88 62.451ZM232.868 50.712L232.002 51.2126L232.006 51.2188L232.009 51.225L232.868 50.712ZM232.868 16.769L232.006 16.2606L232.005 16.2638L232.868 16.769ZM278.004 5.03L277.514 5.90215L277.519 5.90465L278.004 5.03ZM289.925 16.769L289.059 17.2696L289.062 17.2742L289.925 16.769ZM289.925 50.712L290.788 51.2172L290.79 51.2126L289.925 50.712ZM278.004 62.451L278.488 63.3257L278.496 63.3212L278.004 62.451ZM272.18 45.616L271.436 44.9478L271.428 44.9564L272.18 45.616ZM272.18 21.683L271.428 22.3426L271.435 22.3507L271.442 22.3587L272.18 21.683ZM250.613 21.683L251.358 22.3503L251.364 22.3426L250.613 21.683ZM250.613 45.707L249.861 46.3666L249.868 46.3742L250.613 45.707ZM261.442 65.637C255.598 65.637 250.245 64.2812 245.364 61.5763L244.395 63.3257C249.585 66.2021 255.274 67.637 261.442 67.637V65.637ZM245.372 61.5808C240.488 58.815 236.61 55.0252 233.726 50.199L232.009 51.225C235.071 56.3481 239.201 60.3843 244.387 63.3212L245.372 61.5808ZM233.733 50.2114C230.917 45.341 229.5 39.8439 229.5 33.695H227.5C227.5 40.1648 228.995 46.0124 232.002 51.2126L233.733 50.2114ZM229.5 33.695C229.5 27.5459 230.917 22.0813 233.731 17.2742L232.005 16.2638C228.995 21.406 227.5 27.2254 227.5 33.695H229.5ZM233.729 17.2774C236.612 12.393 240.487 8.60753 245.364 5.90465L244.395 4.15534C239.201 7.0338 235.068 11.0744 232.006 16.2606L233.729 17.2774ZM245.364 5.90465C250.245 3.19981 255.598 1.844 261.442 1.844V-0.156002C255.274 -0.156002 249.585 1.27885 244.395 4.15534L245.364 5.90465ZM261.442 1.844C267.348 1.844 272.699 3.20065 277.514 5.90214L278.493 4.15786C273.359 1.27801 267.668 -0.156002 261.442 -0.156002V1.844ZM277.519 5.90465C282.394 8.60651 286.237 12.3895 289.059 17.2696L290.79 16.2684C287.789 11.0779 283.684 7.03482 278.488 4.15534L277.519 5.90465ZM289.062 17.2742C291.876 22.0813 293.293 27.5459 293.293 33.695H295.293C295.293 27.2254 293.798 21.406 290.788 16.2638L289.062 17.2742ZM293.293 33.695C293.293 39.8439 291.876 45.341 289.059 50.2114L290.79 51.2126C293.798 46.0124 295.293 40.1648 295.293 33.695H293.293ZM289.062 50.2068C286.239 55.0287 282.393 58.816 277.511 61.5808L278.496 63.3212C283.685 60.3833 287.786 56.3446 290.788 51.2172L289.062 50.2068ZM277.519 61.5763C272.638 64.2812 267.286 65.637 261.442 65.637V67.637C267.61 67.637 273.298 66.2021 278.488 63.3257L277.519 61.5763ZM261.442 51.075C266.232 51.075 270.103 49.4982 272.931 46.2756L271.428 44.9564C269.039 47.6791 265.752 49.075 261.442 49.075V51.075ZM272.924 46.2841C275.796 43.086 277.184 38.8534 277.184 33.695H275.184C275.184 38.4859 273.902 42.2007 271.436 44.9479L272.924 46.2841ZM277.184 33.695C277.184 28.4237 275.8 24.1523 272.917 21.0073L271.442 22.3587C273.898 25.0377 275.184 28.7743 275.184 33.695H277.184ZM272.931 21.0234C270.103 17.8008 266.232 16.224 261.442 16.224V18.224C265.752 18.224 269.039 19.6199 271.428 22.3426L272.931 21.0234ZM261.442 16.224C256.596 16.224 252.692 17.7977 249.861 21.0234L251.364 22.3426C253.751 19.6229 257.066 18.224 261.442 18.224V16.224ZM249.868 21.0158C247.05 24.1611 245.7 28.4293 245.7 33.695H247.7C247.7 28.7687 248.958 25.0289 251.357 22.3502L249.868 21.0158ZM245.7 33.695C245.7 38.9048 247.052 43.166 249.861 46.3666L251.364 45.0474C248.956 42.3027 247.7 38.5559 247.7 33.695H245.7ZM249.868 46.3742C252.7 49.5363 256.603 51.075 261.442 51.075V49.075C257.059 49.075 253.742 47.7017 251.357 45.0398L249.868 46.3742ZM321.148 66L320.267 66.4741L320.55 67H321.148V66ZM308.408 42.34L309.288 41.8659L309.005 41.34H308.408V42.34ZM306.497 42.34V41.34H305.497V42.34H306.497ZM306.497 66V67H307.497V66H306.497ZM288.661 66H287.661V67H288.661V66ZM288.661 1.845V0.844996H287.661V1.845H288.661ZM329.884 4.575L329.43 5.46647L329.442 5.47245L329.884 4.575ZM337.983 11.946L337.116 12.4457L337.121 12.453L337.983 11.946ZM337.073 33.968L336.264 33.3798L336.262 33.3825L337.073 33.968ZM326.608 40.975L326.318 40.0179L325.11 40.3833L325.742 41.4755L326.608 40.975ZM341.077 66V67H342.81L341.942 65.4995L341.077 66ZM306.497 30.146H305.497V31.146H306.497V30.146ZM320.784 28.417L320.095 27.692L320.095 27.692L320.784 28.417ZM320.693 18.589L319.985 19.2961L320.003 19.3138L320.022 19.3305L320.693 18.589ZM306.497 16.769V15.769H305.497V16.769H306.497ZM322.028 65.5259L309.288 41.8659L307.527 42.8141L320.267 66.4741L322.028 65.5259ZM308.408 41.34H306.497V43.34H308.408V41.34ZM305.497 42.34V66H307.497V42.34H305.497ZM306.497 65H288.661V67H306.497V65ZM289.661 66V1.845H287.661V66H289.661ZM288.661 2.845H316.78V0.844996H288.661V2.845ZM316.78 2.845C321.822 2.845 326.026 3.73515 329.43 5.46638L330.337 3.68361C326.583 1.77484 322.05 0.844996 316.78 0.844996V2.845ZM329.442 5.47245C332.861 7.15297 335.405 9.47914 337.116 12.4457L338.849 11.4463C336.92 8.10352 334.064 5.51569 330.325 3.67755L329.442 5.47245ZM337.121 12.453C338.843 15.3809 339.713 18.6916 339.713 22.411H341.713C341.713 18.3651 340.762 14.6991 338.845 11.439L337.121 12.453ZM339.713 22.411C339.713 26.5808 338.559 30.2244 336.264 33.3798L337.881 34.5562C340.44 31.0382 341.713 26.9772 341.713 22.411H339.713ZM336.262 33.3825C334.047 36.4486 330.76 38.6734 326.318 40.0179L326.897 41.9321C331.676 40.4859 335.366 38.0394 337.883 34.5535L336.262 33.3825ZM325.742 41.4755L340.211 66.5005L341.942 65.4995L327.473 40.4745L325.742 41.4755ZM341.077 65H321.148V67H341.077V65ZM306.497 31.146H315.324V29.146H306.497V31.146ZM315.324 31.146C317.892 31.146 320.004 30.5369 321.472 29.142L320.095 27.692C319.136 28.6024 317.609 29.146 315.324 29.146V31.146ZM321.472 29.142C322.94 27.7476 323.604 25.7824 323.604 23.412H321.604C321.604 25.4096 321.054 26.7811 320.095 27.692L321.472 29.142ZM323.604 23.412C323.604 21.1284 322.889 19.2275 321.363 17.8475L320.022 19.3305C321.044 20.2559 321.604 21.5703 321.604 23.412H323.604ZM321.4 17.8819C319.937 16.4192 317.852 15.769 315.324 15.769V17.769C317.527 17.769 319.022 18.3321 319.985 19.2961L321.4 17.8819ZM315.324 15.769H306.497V17.769H315.324V15.769ZM305.497 16.769V30.146H307.497V16.769H305.497Z" fill="white"/>
</g>
</svg>
