<svg width="441" height="173" viewBox="0 0 441 173" fill="none" xmlns="http://www.w3.org/2000/svg">
<g style="mix-blend-mode:darken">
<path d="M69.2043 68.132V78.597H89.6793V92.156H69.2043V103.713H92.4093V118H51.3683V53.845H92.4093V68.132H69.2043ZM149.999 53.845L127.886 118H105.045L82.8408 53.845H101.951L116.511 100.164L130.98 53.845H149.999ZM159.742 68.132V78.597H180.217V92.156H159.742V103.713H182.947V118H141.906V53.845H182.947V68.132H159.742ZM243.904 118H226.068L202.317 82.146V118H184.481V53.845H202.317L226.068 90.154V53.845H243.904V118ZM288.735 53.845V68.041H271.627V118H253.791V68.041H236.865V53.845H288.735ZM372.148 118L359.408 94.34H357.497V118H339.661V53.845H367.78C372.936 53.845 377.304 54.755 380.884 56.575C384.463 58.3343 387.163 60.7913 388.983 63.946C390.803 67.04 391.713 70.5283 391.713 74.411C391.713 78.779 390.499 82.6313 388.073 85.968C385.707 89.244 382.218 91.5797 377.608 92.975L392.077 118H372.148ZM357.497 82.146H366.324C368.75 82.146 370.57 81.5697 371.784 80.417C372.997 79.2643 373.604 77.596 373.604 75.412C373.604 73.3493 372.967 71.7417 371.693 70.589C370.479 69.3757 368.69 68.769 366.324 68.769H357.497V82.146Z" fill="#14143A"/>
<path d="M312.442 118.637C306.436 118.637 300.915 117.242 295.88 114.451C290.844 111.6 286.84 107.687 283.868 102.712C280.956 97.6767 279.5 92.0043 279.5 85.695C279.5 79.3857 280.956 73.7437 283.868 68.769C286.84 63.7337 290.844 59.8207 295.88 57.03C300.915 54.2393 306.436 52.844 312.442 52.844C318.508 52.844 324.029 54.2393 329.004 57.03C334.039 59.8207 338.013 63.7337 340.925 68.769C343.837 73.7437 345.293 79.3857 345.293 85.695C345.293 92.0043 343.837 97.6767 340.925 102.712C338.013 107.687 334.039 111.6 329.004 114.451C323.968 117.242 318.448 118.637 312.442 118.637ZM312.442 102.075C316.992 102.075 320.571 100.589 323.18 97.616C325.849 94.6433 327.184 90.6697 327.184 85.695C327.184 80.599 325.849 76.595 323.18 73.683C320.571 70.7103 316.992 69.224 312.442 69.224C307.831 69.224 304.221 70.7103 301.613 73.683C299.004 76.595 297.7 80.599 297.7 85.695C297.7 90.7303 299.004 94.7343 301.613 97.707C304.221 100.619 307.831 102.075 312.442 102.075Z" fill="#4441DE"/>
</g>
</svg>
